<?xml version="1.0" standalone="no"?><!DOCTYPE svg PUBLIC "-//W3C//DTD SVG 1.1//EN" "http://www.w3.org/Graphics/SVG/1.1/DTD/svg11.dtd"><svg t="1649078657811" class="icon" viewBox="0 0 1046 1024" version="1.1" xmlns="http://www.w3.org/2000/svg" p-id="14858" xmlns:xlink="http://www.w3.org/1999/xlink" width="204.296875" height="200"><defs><style type="text/css">@font-face { font-family: feedback-iconfont; src: url("//at.alicdn.com/t/font_1031158_u69w8yhxdu.woff2?t=1630033759944") format("woff2"), url("//at.alicdn.com/t/font_1031158_u69w8yhxdu.woff?t=1630033759944") format("woff"), url("//at.alicdn.com/t/font_1031158_u69w8yhxdu.ttf?t=1630033759944") format("truetype"); }
</style></defs><path d="M876.375209 119.23411C846.949275 51.154989 777.756132 6.380308 699.527033 6.380308c-98.607824 0-180.043956 71.68-190.317714 163.558681-71.646242 6.346549-128.022505 66.098637-128.022506 138.633846 0 73.232879 57.130198 133.69389 130.565627 138.825143 1.226549 0.236308 2.475604 0.360088 3.735912 0.360088h355.384263c0.540132 0 1.080264-0.022505 1.59789-0.067517 1.575385 0.045011 3.162022 0.067516 4.74866 0.067517 91.552352 0 166.034286-73.694242 166.034286-164.267604 0-90.843429-75.190857-164.661451-166.878242-164.256352z m0.855209 288.396659c-1.834198 0-3.657143-0.033758-5.457583-0.112527-0.303824-0.022505-0.607648-0.022505-0.911472-0.022506-0.787692 0-1.564132 0.033758-2.318066 0.135033H518.042725a44.448352 44.448352 0 0 0-1.485362-0.135033c-53.416791-2.700659-95.243253-46.158769-95.243253-98.934154 0-56.398769 48.960703-101.387253 105.944615-98.911648 5.468835 0.24756 10.81389-1.834198 14.774857-5.615121 3.97222-3.803429 6.211516-9.103473 6.211517-14.594813 0-78.814242 67.865319-142.943648 151.281934-142.943648 66.334945 0 124.331604 40.127297 144.293978 99.845626 2.959473 8.844659 11.669099 14.752352 20.93011 13.604571a130.644396 130.644396 0 0 1 12.479297-0.585142c69.429451 0 125.906989 55.689846 125.906989 124.140307 0 68.439209-56.488791 124.129055-125.906989 124.129055zM493.252923 664.992352l28.379429 28.368175 70.926066-70.926065a20.041143 20.041143 0 0 0 0-28.368176l-70.926066-70.914813-28.379429 28.356923 36.683956 36.683956H0v40.127296h529.936879l-36.683956 36.672704z m369.438945 179.143736l-28.368176 28.368176 36.683956 36.683956H341.070769v40.127296h529.936879l-36.683956 36.683957 28.368176 28.356923 70.926066-70.914814a20.041143 20.041143 0 0 0 0-28.368175l-70.926066-70.937319zM653.750857 825.501538l28.379429 28.368176 70.926066-70.926066a20.041143 20.041143 0 0 0 0-28.368175l-70.926066-70.926066-28.379429 28.368175 36.683956 36.683956H160.497934V788.817582h529.936879l-36.683956 36.672704z" fill="#1989FA" p-id="14859"></path></svg>