<?xml version="1.0" standalone="no"?><!DOCTYPE svg PUBLIC "-//W3C//DTD SVG 1.1//EN" "http://www.w3.org/Graphics/SVG/1.1/DTD/svg11.dtd"><svg t="1635841235112" class="icon" viewBox="0 0 1024 1024" version="1.1" xmlns="http://www.w3.org/2000/svg" p-id="16239" xmlns:xlink="http://www.w3.org/1999/xlink" width="200" height="200"><defs><style type="text/css"></style></defs><path d="M116.394667 502.613333m-96.725334 0a96.725333 96.725333 0 1 0 193.450667 0 96.725333 96.725333 0 1 0-193.450667 0Z" fill="#FFFFFF" p-id="16240"></path><path d="M116.394667 619.008C52.202667 619.008 0 566.784 0 502.592s52.202667-116.416 116.394667-116.416c64.213333 0 116.416 52.245333 116.416 116.416s-52.224 116.416-116.416 116.416z m0-193.450667c-42.474667 0-77.013333 34.56-77.013334 77.034667s34.538667 77.056 77.013334 77.056 77.056-34.56 77.056-77.056-34.581333-77.034667-77.056-77.034667z" fill="" p-id="16241"></path><path d="M907.584 502.613333m-96.725333 0a96.725333 96.725333 0 1 0 193.450666 0 96.725333 96.725333 0 1 0-193.450666 0Z" fill="#FFFFFF" p-id="16242"></path><path d="M907.584 619.008c-64.170667 0-116.394667-52.224-116.394667-116.416s52.224-116.416 116.394667-116.416c64.213333 0 116.416 52.245333 116.416 116.416s-52.202667 116.416-116.416 116.416z m0-193.450667c-42.453333 0-77.013333 34.56-77.013333 77.034667s34.56 77.056 77.013333 77.056c42.474667 0 77.056-34.56 77.056-77.056s-34.56-77.034667-77.056-77.034667z" fill="" p-id="16243"></path><path d="M859.093333 178.752m-76.245333 0a76.245333 76.245333 0 1 0 152.490667 0 76.245333 76.245333 0 1 0-152.490667 0Z" fill="#FFFFFF" p-id="16244"></path><path d="M71.765333 635.626667a438.122667 285.888 0 1 0 876.245334 0 438.122667 285.888 0 1 0-876.245334 0Z" fill="#FFFFFF" p-id="16245"></path><path d="M539.818667 331.093333l60.16-190.186666 163.242666 38.442666a96 96 0 0 0 95.872 95.317334c52.906667 0 95.936-43.029333 95.936-95.914667S912 82.816 859.093333 82.816a96 96 0 0 0-88.021333 57.941333l-179.84-42.346666a19.712 19.712 0 0 0-23.296 13.226666L498.709333 330.453333c-247.253333 4.010667-446.613333 139.2-446.613333 305.152 0 168.512 205.354667 305.578667 457.792 305.578667s457.813333-137.066667 457.813333-305.578667c0-161.706667-189.418667-294.144-427.882666-304.512zM859.093333 122.176c31.189333 0 56.576 25.386667 56.576 56.576s-25.386667 56.533333-56.576 56.533333c-31.189333 0-56.576-25.365333-56.576-56.533333s25.386667-56.576 56.576-56.576zM509.866667 901.824c-230.698667 0-418.410667-119.424-418.410667-266.218667 0-146.752 187.712-266.154667 418.432-266.154666s418.432 119.402667 418.432 266.154666c0 146.794667-187.712 266.218667-418.432 266.218667z" fill="" p-id="16246"></path><path d="M357.824 508.8c-38.912 0-70.464 31.573333-70.464 70.485333s31.573333 71.594667 70.464 71.594667c38.912 0 70.485333-32.682667 70.485333-71.594667s-31.573333-70.464-70.485333-70.464zM666.581333 508.8c-38.912 0-70.485333 31.573333-70.485333 70.485333s31.573333 71.594667 70.485333 71.594667c38.912 0 70.464-32.682667 70.464-71.594667s-31.573333-70.464-70.464-70.464z" fill="#FF4500" p-id="16247"></path><path d="M677.248 753.344a19.776 19.776 0 0 0-27.84-0.021333c-26.773333 26.730667-71.552 39.744-136.874667 39.744-0.192 0-0.362667 0.106667-0.554666 0.106666-0.192 0-0.362667-0.106667-0.554667-0.106666-65.365333 0-110.122667-13.013333-136.853333-39.722667a19.690667 19.690667 0 1 0-27.84 27.84c34.496 34.496 88.362667 51.242667 164.693333 51.242667 0.213333 0 0.362667-0.106667 0.554667-0.106667 0.213333 0 0.362667 0.106667 0.554666 0.106667 76.309333 0 130.176-16.746667 164.693334-51.2a19.712 19.712 0 0 0 0.021333-27.882667z" fill="" p-id="16248"></path></svg>