<?xml version="1.0" standalone="no"?><!DOCTYPE svg PUBLIC "-//W3C//DTD SVG 1.1//EN" "http://www.w3.org/Graphics/SVG/1.1/DTD/svg11.dtd"><svg t="1648261874391" class="icon" viewBox="0 0 1024 1024" version="1.1" xmlns="http://www.w3.org/2000/svg" p-id="4514" xmlns:xlink="http://www.w3.org/1999/xlink" width="200" height="200"><defs><style type="text/css">@font-face { font-family: feedback-iconfont; src: url("//at.alicdn.com/t/font_1031158_u69w8yhxdu.woff2?t=1630033759944") format("woff2"), url("//at.alicdn.com/t/font_1031158_u69w8yhxdu.woff?t=1630033759944") format("woff"), url("//at.alicdn.com/t/font_1031158_u69w8yhxdu.ttf?t=1630033759944") format("truetype"); }
</style></defs><path d="M739.555556 85.333333h227.555555a56.888889 56.888889 0 0 1 56.888889 56.888889v824.888889a56.888889 56.888889 0 0 1-56.888889 56.888889H56.888889a56.888889 56.888889 0 0 1-56.888889-56.888889V142.222222a56.888889 56.888889 0 0 1 56.888889-56.888889h227.555555V28.444444a28.444444 28.444444 0 0 1 56.888889 0v56.888889h341.333334V28.444444a28.444444 28.444444 0 0 1 56.888889 0v56.888889z m-28.444445 0V28.444444v56.888889z m28.444445 56.888889v56.888889a28.444444 28.444444 0 0 1-56.888889 0V142.222222H341.333333v56.888889a28.444444 28.444444 0 0 1-56.888889 0V142.222222H56.888889v824.888889h910.222222V142.222222h-227.555555z m-28.444445 0v56.888889-56.888889zM312.888889 85.333333V28.444444v56.888889z m0 56.888889v56.888889-56.888889z" fill="#4D4A49" p-id="4515"></path><path d="M334.762667 536.462222a28.444444 28.444444 0 0 0-43.747556 36.408889l142.904889 171.776a28.444444 28.444444 0 0 0 43.804444-0.085333l283.761778-343.552a28.444444 28.444444 0 1 0-43.861333-36.238222l-261.916445 317.098666-120.945777-145.379555z" fill="#F27233" p-id="4516"></path></svg>