<?xml version="1.0" standalone="no"?><!DOCTYPE svg PUBLIC "-//W3C//DTD SVG 1.1//EN" "http://www.w3.org/Graphics/SVG/1.1/DTD/svg11.dtd"><svg t="1635927243463" class="icon" viewBox="0 0 1024 1024" version="1.1" xmlns="http://www.w3.org/2000/svg" p-id="7628" xmlns:xlink="http://www.w3.org/1999/xlink" width="200" height="200"><defs><style type="text/css"></style></defs><path d="M408 536c44.8 0 80 35.2 80 80v208c0 44.8-35.2 80-80 80h-208c-44.8 0-80-35.2-80-80v-208c0-44.8 35.2-80 80-80h208z m400 0c44.8 0 80 35.2 80 80v208c0 44.8-35.2 80-80 80h-208c-44.8 0-80-35.2-80-80v-208c0-44.8 35.2-80 80-80h208z m-400 32h-208c-27.2 0-48 20.8-48 48v208c0 27.2 20.8 48 48 48h208c27.2 0 48-20.8 48-48v-208c0-27.2-20.8-48-48-48z m400 0h-208c-27.2 0-48 20.8-48 48v208c0 27.2 20.8 48 48 48h208c27.2 0 48-20.8 48-48v-208c0-27.2-20.8-48-48-48z m-398.4-432c43.2 0 78.4 35.2 78.4 78.4v211.2c0 43.2-35.2 78.4-78.4 78.4H198.4c-43.2 0-78.4-35.2-78.4-78.4V214.4c0-43.2 35.2-78.4 78.4-78.4h211.2z m0 32H198.4c-25.6 0-46.4 20.8-46.4 46.4v211.2c0 25.6 20.8 46.4 46.4 46.4h211.2c25.6 0 46.4-20.8 46.4-46.4V214.4c0-25.6-20.8-46.4-46.4-46.4z" fill="#313131" p-id="7629"></path><path d="M752 144l112 112c30.4 30.4 30.4 81.6 0 112l-112 112c-30.4 30.4-81.6 30.4-112 0l-112-112c-30.4-30.4-30.4-81.6 0-112l112-112c30.4-32 81.6-32 112 0z m-22.4 22.4c-19.2-19.2-48-19.2-67.2 0l-112 112c-19.2 19.2-19.2 48 0 67.2l112 112c19.2 19.2 48 19.2 67.2 0l112-112c19.2-19.2 19.2-48 0-67.2l-112-112z" fill="#3192F2" p-id="7630"></path></svg>