<?xml version="1.0" standalone="no"?><!DOCTYPE svg PUBLIC "-//W3C//DTD SVG 1.1//EN" "http://www.w3.org/Graphics/SVG/1.1/DTD/svg11.dtd"><svg t="1647846966103" class="icon" viewBox="0 0 1024 1024" version="1.1" xmlns="http://www.w3.org/2000/svg" p-id="16066" xmlns:xlink="http://www.w3.org/1999/xlink" width="200" height="200"><defs><style type="text/css">@font-face { font-family: feedback-iconfont; src: url("//at.alicdn.com/t/font_1031158_u69w8yhxdu.woff2?t=1630033759944") format("woff2"), url("//at.alicdn.com/t/font_1031158_u69w8yhxdu.woff?t=1630033759944") format("woff"), url("//at.alicdn.com/t/font_1031158_u69w8yhxdu.ttf?t=1630033759944") format("truetype"); }
</style></defs><path d="M823.681 516.792c-11.046 0-20 8.954-20 20v149.471c0 64.427-52.415 116.842-116.842 116.842H338.314c-64.427 0-116.842-52.415-116.842-116.842V337.738c0-64.427 52.415-116.842 116.842-116.842H586.41c11.046 0 20-8.954 20-20s-8.954-20-20-20H338.314c-86.483 0-156.842 70.359-156.842 156.842v348.525c0 86.482 70.359 156.842 156.842 156.842h348.525c86.482 0 156.842-70.359 156.842-156.842V536.792c0-11.046-8.954-20-20-20z" p-id="16067"></path><path d="M339.782 628.425l-5.749 39.541a44.482 44.482 0 0 0 10.376 35.527c8.478 9.799 20.732 15.418 33.622 15.418 2.153 0 4.333-0.158 6.478-0.47l39.542-5.748c30.119-4.378 58.559-18.643 80.08-40.164l336.417-336.415c24.545-24.546 24.545-64.485-0.001-89.031l-35.154-35.154c-11.891-11.891-27.7-18.439-44.516-18.439s-32.625 6.548-44.516 18.439L379.945 548.345c-21.521 21.521-35.784 49.961-40.163 80.08z m404.864-388.211c4.335-4.335 10.1-6.723 16.23-6.723s11.896 2.388 16.231 6.723l35.154 35.154c8.95 8.95 8.95 23.513 0 32.462l-37.55 37.55-67.617-67.616 37.552-37.55z m-65.835 65.834l67.617 67.616-270.582 270.582c-15.466 15.466-35.904 25.717-57.549 28.863l-39.542 5.748c-0.246 0.036-0.49 0.054-0.723 0.054-1.737 0-2.858-0.995-3.371-1.589-0.89-1.028-1.241-2.241-1.043-3.603l5.749-39.541c3.146-21.646 13.397-42.083 28.863-57.549l270.581-270.581z" p-id="16068"></path></svg>