<?xml version="1.0" standalone="no"?><!DOCTYPE svg PUBLIC "-//W3C//DTD SVG 1.1//EN" "http://www.w3.org/Graphics/SVG/1.1/DTD/svg11.dtd"><svg t="1647847034065" class="icon" viewBox="0 0 1024 1024" version="1.1" xmlns="http://www.w3.org/2000/svg" p-id="16216" xmlns:xlink="http://www.w3.org/1999/xlink" width="200" height="200"><defs><style type="text/css">@font-face { font-family: feedback-iconfont; src: url("//at.alicdn.com/t/font_1031158_u69w8yhxdu.woff2?t=1630033759944") format("woff2"), url("//at.alicdn.com/t/font_1031158_u69w8yhxdu.woff?t=1630033759944") format("woff"), url("//at.alicdn.com/t/font_1031158_u69w8yhxdu.ttf?t=1630033759944") format("truetype"); }
</style></defs><path d="M292.906667 759.466667a102.4 102.4 0 0 1-73.386667-29.44A105.173333 105.173333 0 0 1 192 635.52l10.24-58.026667a137.386667 137.386667 0 0 1 38.4-72.32L570.026667 175.786667a135.04 135.04 0 0 1 81.28-39.68 104.533333 104.533333 0 0 1 85.333333 29.013333L784.426667 213.333333a104.746667 104.746667 0 0 1 29.013333 85.333334 135.04 135.04 0 0 1-39.68 81.28L444.16 708.906667A137.386667 137.386667 0 0 1 371.84 746.666667l-58.026667 10.24a120.96 120.96 0 0 1-20.906666 2.56z m370.133333-538.453334h-3.2a50.346667 50.346667 0 0 0-29.44 15.146667L301.013333 565.546667a52.266667 52.266667 0 0 0-14.72 26.88l-10.24 58.026666a21.333333 21.333333 0 0 0 4.053334 19.2 21.333333 21.333333 0 0 0 19.2 4.053334l58.026666-10.24a52.266667 52.266667 0 0 0 26.666667-14.933334L713.386667 320a50.56 50.56 0 0 0 15.146666-29.44 21.333333 21.333333 0 0 0-4.266666-16.426667l-48-48.64a18.56 18.56 0 0 0-13.226667-4.48z" fill="#FC455D" p-id="16217"></path><path d="M624.554667 324.657987m-30.16989 30.169889a42.666667 42.666667 0 1 0 60.339779-60.339778 42.666667 42.666667 0 1 0-60.339779 60.339778Z" fill="#FF9B57" p-id="16218"></path><path d="M810.666667 877.653333H213.333333a32 32 0 0 1 0-64h597.333334a32 32 0 0 1 0 64z" fill="#FD8F9E" p-id="16219"></path></svg>