<?xml version="1.0" standalone="no"?><!DOCTYPE svg PUBLIC "-//W3C//DTD SVG 1.1//EN" "http://www.w3.org/Graphics/SVG/1.1/DTD/svg11.dtd"><svg t="1649078832489" class="icon" viewBox="0 0 1126 1024" version="1.1" xmlns="http://www.w3.org/2000/svg" p-id="15488" xmlns:xlink="http://www.w3.org/1999/xlink" width="219.921875" height="200"><defs><style type="text/css">@font-face { font-family: feedback-iconfont; src: url("//at.alicdn.com/t/font_1031158_u69w8yhxdu.woff2?t=1630033759944") format("woff2"), url("//at.alicdn.com/t/font_1031158_u69w8yhxdu.woff?t=1630033759944") format("woff"), url("//at.alicdn.com/t/font_1031158_u69w8yhxdu.ttf?t=1630033759944") format("truetype"); }
</style></defs><path d="M545.700978 738.577067c-10.319644-92.831289-92.694756-165.376-192.466489-165.376-79.098311 0-149.048889 45.2608-178.801778 114.107733h-0.864711C80.987022 687.3088 5.688889 761.810489 5.688889 853.390222c0 91.591111 75.298133 166.0928 167.879111 166.0928 1.592889 0 3.197156-0.022756 4.790044-0.056889 0.534756 0.034133 1.092267 0.056889 1.627023 0.056889h359.332977c1.251556 0 2.468978-0.113778 3.6864-0.352711 74.308267-5.154133 132.107378-66.309689 132.107378-140.379022 0-73.341156-56.968533-133.757156-129.410844-140.174222z m-7.452445 240.196266a43.611022 43.611022 0 0 0-1.479111 0.136534H182.385778a17.134933 17.134933 0 0 0-3.299556-0.113778c-72.317156 2.7648-132.835556-54.363022-132.835555-125.405867 0-69.211022 57.116444-125.508267 127.305955-125.508266 4.255289 0 8.453689 0.2048 12.606578 0.591644 9.216 1.069511 18.158933-4.8128 21.162667-13.744356 20.206933-60.381867 78.825244-100.955022 145.897244-100.955022 84.343467 0 152.974222 64.830578 152.974222 144.679822 0 5.552356 2.275556 10.865778 6.280534 14.677334 4.004978 3.822933 9.352533 5.927822 14.961777 5.597866 1.797689-0.079644 3.618133-0.147911 5.461334-0.147911 56.046933 0 101.626311 44.942222 101.626311 100.169956 0 53.339022-42.2912 97.28-96.290133 100.022044z m45.715911-527.644444c1.251556 0.238933 2.503111 0.352711 3.7888 0.352711h359.355734c0.534756 0 1.080889-0.022756 1.627022-0.045511 1.581511 0.034133 3.185778 0.045511 4.801422 0.045511 92.5696 0 167.867733-74.501689 167.867734-166.081422 0-91.591111-75.309511-166.0928-167.867734-166.0928h-0.876089C922.908444 50.471822 852.957867 5.199644 773.859556 5.199644c-99.703467 0-182.055822 72.487822-192.432356 165.387378-72.442311 6.405689-129.4336 66.833067-129.4336 140.174222-0.022756 74.046578 57.730844 135.190756 131.982222 140.367645z m10.205867-240.526222c1.8432 0 3.663644 0.045511 5.461333 0.136533a20.366222 20.366222 0 0 0 14.961778-5.666133 20.48 20.48 0 0 0 6.280534-14.768356c0-79.689956 68.619378-144.520533 152.974222-144.520533 67.072 0 125.701689 40.573156 145.897244 100.955022 3.003733 8.977067 12.049067 14.5408 21.162667 13.744356 4.141511-0.398222 8.362667-0.591644 12.617955-0.591645 70.189511 0 127.305956 56.308622 127.305956 125.508267-0.022756 71.042844-60.8256 128.546133-132.835556 125.394489-0.295822-0.022756-0.6144-0.022756-0.910222-0.022756-0.796444 0-1.558756 0.045511-2.343822 0.147911H590.336l-1.501867-0.147911c-53.998933-2.730667-96.301511-46.660267-96.301511-100.010667 0.011378-55.239111 45.590756-100.169956 101.637689-100.169955zM364.942222 446.3616l-199.145244 26.441956a20.2752 20.2752 0 1 0 5.347555 40.220444L393.170489 483.555556a20.297956 20.297956 0 0 0 16.930133-25.315556l-57.173333-215.04a20.309333 20.309333 0 0 0-39.2192 10.422044l51.245511 192.750934zM25.952711 432.082489c0.898844 0 1.786311-0.068267 2.707911-0.182045l222.025956-29.468444a20.297956 20.297956 0 0 0 16.930133-25.315556l-57.161955-215.04a20.354844 20.354844 0 0 0-24.826312-14.415644 20.309333 20.309333 0 0 0-14.404266 24.826311l51.245511 192.750933-199.168 26.441956a20.2752 20.2752 0 0 0 2.651022 40.391111z m696.092445 187.665067l199.168-26.441956a20.2752 20.2752 0 1 0-5.347556-40.209067l-222.025956 29.468445a20.297956 20.297956 0 0 0-16.941511 25.315555l57.184711 215.017245a20.2752 20.2752 0 1 0 39.2192-10.410667l-51.256888-192.739555z m335.815111 55.057066l-222.025956 29.468445a20.297956 20.297956 0 0 0-16.930133 25.315555l57.161955 215.028622a20.2752 20.2752 0 1 0 39.2192-10.422044l-51.245511-192.739556 199.179378-26.441955a20.2752 20.2752 0 1 0-5.358933-40.209067z" fill="#1989FA" p-id="15489"></path></svg>