<?xml version="1.0" standalone="no"?><!DOCTYPE svg PUBLIC "-//W3C//DTD SVG 1.1//EN" "http://www.w3.org/Graphics/SVG/1.1/DTD/svg11.dtd"><svg t="1647847056013" class="icon" viewBox="0 0 1024 1024" version="1.1" xmlns="http://www.w3.org/2000/svg" p-id="16367" xmlns:xlink="http://www.w3.org/1999/xlink" width="200" height="200"><defs><style type="text/css">@font-face { font-family: feedback-iconfont; src: url("//at.alicdn.com/t/font_1031158_u69w8yhxdu.woff2?t=1630033759944") format("woff2"), url("//at.alicdn.com/t/font_1031158_u69w8yhxdu.woff?t=1630033759944") format("woff"), url("//at.alicdn.com/t/font_1031158_u69w8yhxdu.ttf?t=1630033759944") format("truetype"); }
</style></defs><path d="M516.654545 862.642424C325.818182 862.642424 170.666667 707.490909 170.666667 516.654545S325.818182 170.666667 516.654545 170.666667s345.987879 155.151515 345.987879 345.987878-155.151515 345.987879-345.987879 345.987879z m0-660.945454C342.884848 201.69697 201.69697 342.884848 201.69697 516.654545s141.187879 314.957576 314.957575 314.957576 314.957576-141.187879 314.957576-314.957576S690.424242 201.69697 516.654545 201.69697z" p-id="16368"></path><path d="M454.593939 636.121212c-7.757576 0-15.515152-1.551515-23.272727-6.20606-15.515152-7.757576-23.272727-23.272727-23.272727-40.339394v-145.842425c0-17.066667 9.309091-32.581818 23.272727-40.339394 15.515152-7.757576 32.581818-7.757576 46.545455 0l127.224242 72.921213c13.963636 7.757576 23.272727 21.721212 24.824243 38.787878 0 17.066667-9.309091 32.581818-24.824243 41.890909l-127.224242 72.921213c-7.757576 3.10303-15.515152 6.206061-23.272728 6.20606z m0-207.90303c-3.10303 0-6.206061 1.551515-7.757575 1.551515-4.654545 3.10303-7.757576 7.757576-7.757576 13.963636V589.575758c0 6.206061 3.10303 10.860606 7.757576 13.963636 1.551515 1.551515 7.757576 4.654545 15.515151 0l127.224243-72.921212c6.206061-3.10303 9.309091-7.757576 7.757575-13.963637 0-3.10303-1.551515-7.757576-7.757575-10.860606l-128.775758-72.921212c-1.551515-3.10303-3.10303-4.654545-6.206061-4.654545z" p-id="16369"></path></svg>