<?xml version="1.0" standalone="no"?><!DOCTYPE svg PUBLIC "-//W3C//DTD SVG 1.1//EN" "http://www.w3.org/Graphics/SVG/1.1/DTD/svg11.dtd"><svg t="1649078926568" class="icon" viewBox="0 0 1024 1024" version="1.1" xmlns="http://www.w3.org/2000/svg" p-id="18751" xmlns:xlink="http://www.w3.org/1999/xlink" width="200" height="200"><defs><style type="text/css">@font-face { font-family: feedback-iconfont; src: url("//at.alicdn.com/t/font_1031158_u69w8yhxdu.woff2?t=1630033759944") format("woff2"), url("//at.alicdn.com/t/font_1031158_u69w8yhxdu.woff?t=1630033759944") format("woff"), url("//at.alicdn.com/t/font_1031158_u69w8yhxdu.ttf?t=1630033759944") format("truetype"); }
</style></defs><path d="M483.217067 585.0112L355.080533 456.874667a42.6752 42.6752 0 0 0-60.373333-0.034134 42.717867 42.717867 0 0 0 0.034133 60.373334l156.808534 156.808533a42.709333 42.709333 0 0 0 50.210133 7.569067 42.564267 42.564267 0 0 0 15.4624-9.898667l265.403733-265.403733a42.658133 42.658133 0 1 0-60.3392-60.3392L483.217067 585.0112zM512 1024C229.666133 1024 0 794.333867 0 512S229.666133 0 512 0s512 229.666133 512 512-229.666133 512-512 512z m0-938.666667c-235.264 0-426.666667 191.402667-426.666667 426.666667s191.402667 426.666667 426.666667 426.666667 426.666667-191.402667 426.666667-426.666667-191.402667-426.666667-426.666667-426.666667z" fill="#1989FA" p-id="18752"></path></svg>